<svg width="96" height="96" xmlns="http://www.w3.org/2000/svg" xmlns:xlink="http://www.w3.org/1999/xlink" overflow="hidden"><defs><clipPath id="clip0"><rect x="834" y="316" width="96" height="96"/></clipPath></defs><g clip-path="url(#clip0)" transform="translate(-834 -316)"><path d="M882 331.5C883.7 331.5 885 330.2 885 328.5 885 326.8 883.7 322.5 882 322.5 880.3 322.5 882.4 324.5 880 326.5 879.9 326.6 879.9 326.6 879.8 326.7 879.4 327.2 879 327.7 879 328.5 879 330.2 880.3 331.5 882 331.5Z"/><path d="M872 336.5C873.7 336.5 875 335.2 875 333.5 875 331.8 873.7 327.5 872 327.5 870.3 327.5 872.4 329.5 870 331.5 869.9 331.6 869.9 331.6 869.8 331.7 869.4 332.2 869 332.7 869 333.5 869 335.2 870.3 336.5 872 336.5Z"/><path d="M892 336.5C893.7 336.5 895 335.2 895 333.5 895 331.8 893.7 327.5 892 327.5 890.3 327.5 892.4 329.5 890 331.5 889.9 331.6 889.9 331.6 889.8 331.7 889.4 332.2 889 332.7 889 333.5 889 335.2 890.3 336.5 892 336.5Z"/><path d="M864 373.8C867.1 370.7 873.2 370.7 876.3 373.8 877.1 374.6 879.3 374.6 880.1 373.8 883.2 370.7 889.3 370.7 892.4 373.8 893.2 374.6 895.4 374.6 896.2 373.8 899.3 370.7 905.4 370.7 908.5 373.8 908.8 374.1 909.3 374.3 909.9 374.4L909.9 358.5C909.9 355.8 903.8 353.5 894.9 352.3L894.9 341.5C894.9 340.9 893.6 340.5 891.9 340.5 890.2 340.5 888.9 340.9 888.9 341.5L888.9 351.7C887.6 351.6 886.3 351.6 884.9 351.5L884.9 336.5C884.9 335.9 883.6 335.5 881.9 335.5 880.2 335.5 878.9 335.9 878.9 336.5L878.9 351.5C877.5 351.5 876.2 351.6 874.9 351.7L874.9 341.5C874.9 340.9 873.6 340.5 871.9 340.5 870.2 340.5 868.9 340.9 868.9 341.5L868.9 352.3C860 353.5 853.9 355.8 853.9 358.5L853.9 371.5C856.2 371.5 858.5 372.3 860.1 373.8 861 374.6 863.2 374.6 864 373.8Z"/><path d="M910 380.4C907.9 380.3 905.8 379.5 904.4 378.1 903.6 377.3 901.4 377.3 900.6 378.1 897.5 381.2 891.4 381.2 888.3 378.1 887.5 377.3 885.3 377.3 884.5 378.1 881.4 381.2 875.3 381.2 872.2 378.1 871.4 377.3 869.2 377.3 868.4 378.1 865.3 381.2 859.2 381.2 856.1 378.1 855.7 377.7 854.9 377.5 854.2 377.5L854.2 395.5 910.2 395.5 910.2 380.4Z"/><path d="M910 399.5 854 399.5C852.3 399.5 851 400.8 851 402.5 851 404.2 852.3 405.5 854 405.5L910 405.5C911.7 405.5 913 404.2 913 402.5 913 400.8 911.7 399.5 910 399.5Z"/></g></svg>