<svg width="96" height="96" xmlns="http://www.w3.org/2000/svg" xmlns:xlink="http://www.w3.org/1999/xlink" overflow="hidden"><defs><clipPath id="clip0"><rect x="519" y="391" width="96" height="96"/></clipPath></defs><g clip-path="url(#clip0)" transform="translate(-519 -391)"><path d="M609.6 427.3 604.4 425.4 604.4 414.5 609.6 412.3 574.4 399.3 531.6 414.3C527.5 416.3 527.4 421.8 527.4 426.3 527.4 427.8 527.6 429.3 527.9 430.7 524.5 432.9 524.4 438 524.4 442.3 524.4 445.8 525.2 449 527.4 451 526.9 452.7 527.2 454.8 527.2 457.3 527.2 461.8 528.4 465.9 532.4 467.3L560.2 478.8 609.4 458.4 604.2 456.5 604.2 445.5 609.4 443.3 601.4 440.3 601.4 430.7 609.6 427.3ZM532.8 421.3 560.6 432.2 600.5 416.1 600.5 424.7 560.6 441.3 532.8 430.3 532.8 421.3ZM600.3 455.8 560.4 472.3 532.5 461.3 532.5 453.5 557.4 463.7 600.4 446.7 600.3 455.8ZM597.5 440.8 557.6 457.3 529.8 446.3 529.8 437.3 558.4 448.7 597.6 432.3 597.6 440.8Z"/></g></svg>