<svg width="96" height="96" xmlns="http://www.w3.org/2000/svg" xmlns:xlink="http://www.w3.org/1999/xlink" overflow="hidden"><defs><clipPath id="clip0"><rect x="719" y="209" width="96" height="96"/></clipPath></defs><g clip-path="url(#clip0)" transform="translate(-719 -209)"><path d="M804 226.6C803.957 225.973 803.686 225.383 803.24 224.94L800.81 222.52C800.473 222.179 800.226 221.76 800.09 221.3L799.58 219.56C799.292 218.579 798.607 217.763 797.69 217.31L795.6 216.59 796.19 213.8C796.564 213.587 796.827 213.222 796.91 212.8 796.97 211.974 796.35 211.255 795.523 211.195 794.849 211.145 794.226 211.553 794 212.19 793.904 212.606 793.999 213.043 794.26 213.38L793.69 216 793.63 216 793.12 213.42C793.605 212.749 793.454 211.811 792.783 211.326 792.112 210.84 791.174 210.991 790.688 211.663 790.203 212.334 790.354 213.272 791.026 213.757 791.056 213.779 791.088 213.8 791.12 213.82L791.6 216C791.314 216.055 791.042 216.167 790.8 216.33L790.04 216.83 786.48 216.03C786.045 215.924 785.607 216.191 785.502 216.626 785.44 216.877 785.503 217.142 785.67 217.34L787.61 219.39 765.84 253.3C765.325 254.108 764.5 254.668 763.56 254.85L746 259.5C745.358 259.622 744.729 259.803 744.12 260.04 738.249 261.195 734.012 266.336 734 272.32L734 283.51C733.999 284.425 733.511 285.271 732.72 285.73 732.002 286.143 731.755 287.06 732.168 287.778 732.436 288.244 732.933 288.531 733.47 288.53 733.734 288.532 733.993 288.463 734.22 288.33 735.937 287.331 736.996 285.496 737 283.51L737 272.32C737.001 270.048 737.817 267.852 739.3 266.13 739.065 267.47 738.965 268.83 739 270.19L739 273.7 739 279 739 299.66C739 301.317 740.343 302.66 742 302.66 743.657 302.66 745 301.317 745 299.66L745 278.32 761 276.55 761 299.66C761 301.317 762.343 302.66 764 302.66 765.657 302.66 767 301.317 767 299.66L767 275.88 769 275.66 769 299.66C769 301.317 770.343 302.66 772 302.66 773.657 302.66 775 301.317 775 299.66L775 275 775 275 778.63 269.64C779.514 268.575 779.999 267.234 780 265.85L780 261.31C779.999 260.107 780.191 258.912 780.57 257.77L792.05 226.36C792.432 225.576 793.376 225.25 794.16 225.63L795.41 226.23C795.88 226.46 796.397 226.579 796.92 226.58L799.09 226.58C799.4 226.577 799.701 226.683 799.94 226.88L800.94 227.69C801.276 227.971 801.722 228.082 802.15 227.99L802.89 227.84 804.12 227.5Z"/><path d="M747 299.66C747 301.317 748.343 302.66 750 302.66 751.657 302.66 753 301.317 753 299.66L753 279.45 747 280.11Z"/></g></svg>