<svg width="96" height="96" xmlns="http://www.w3.org/2000/svg" xmlns:xlink="http://www.w3.org/1999/xlink" overflow="hidden"><defs><clipPath id="clip0"><rect x="719" y="394" width="96" height="96"/></clipPath></defs><g clip-path="url(#clip0)" transform="translate(-719 -394)"><path d="M807 441C807 437.7 804.3 435 801 435L782 435C780.4 435 779.1 433.7 779 432.1 779.1 430.3 782 426.7 782 413 782 409.7 779.3 407 776 407 772.7 407 770 409.7 770 413 770 428.2 752.3 436.8 752 437L752 469C759.1 469 759.6 477 773 477 777.5 477 791 477 791 477 794.3 477 797 474.3 797 471 797 469.4 796.4 468 795.4 467 795.6 467 795.8 467 796 467 799.3 467 802 464.3 802 461 802 459.4 801.4 457.9 800.3 456.8 803 456.2 805 453.8 805 451 805 449.3 804.3 447.7 803.1 446.6 805.4 445.8 807 443.6 807 441Z"/><path d="M742 432 727 432 727 474 742 474C744.2 474 746 472.2 746 470L746 436C746 433.8 744.2 432 742 432Z"/></g></svg>