<svg width="96" height="96" xmlns="http://www.w3.org/2000/svg" xmlns:xlink="http://www.w3.org/1999/xlink" overflow="hidden"><defs><clipPath id="clip0"><rect x="513" y="220" width="96" height="96"/></clipPath></defs><g clip-path="url(#clip0)" transform="translate(-513 -220)"><path d="M577 246.938C577 238.101 569.837 230.938 561 230.938 552.163 230.938 545 238.101 545 246.938 545 255.774 552.163 262.938 561 262.938 569.836 262.938 577 255.774 577 246.938ZM561 258.938C554.373 258.938 549 253.565 549 246.938 549 240.31 554.373 234.938 561 234.938 567.627 234.938 573 240.31 573 246.938 573 253.565 567.627 258.938 561 258.938Z"/><path d="M569.201 241.414 564.047 241.413 565.564 242.93 562.379 246.115 558.379 246.115 552.554 251.939 554.675 254.061 559.621 249.115 563.621 249.115 567.685 245.051 569.201 246.568 569.201 241.414Z"/><path d="M543.242 256.069C540.139 250.026 540.316 242.821 543.712 236.938L531.002 236.938C528.793 236.938 527.002 238.728 527.002 240.938L527.002 300.938C527.002 303.147 528.793 304.938 531.002 304.938 531.002 304.938 531.002 304.938 531.002 304.938L559.002 304.938 559.002 267.408C559.004 267.216 559.024 267.025 559.062 266.838 552.302 266.168 546.344 262.112 543.242 256.069ZM539.611 268.471C539.923 267.892 540.645 267.675 541.224 267.987 541.32 268.039 541.408 268.104 541.487 268.179 542.108 268.76 542.252 269.689 541.837 270.43 541.525 271.009 540.803 271.226 540.224 270.915 540.128 270.863 540.04 270.798 539.961 270.722 539.34 270.142 539.196 269.213 539.611 268.471ZM537.209 270.997C537.436 270.541 537.99 270.355 538.446 270.582 538.54 270.629 538.625 270.691 538.698 270.766 539.195 271.254 539.312 272.01 538.987 272.626 538.761 273.083 538.207 273.269 537.751 273.043 537.657 272.996 537.571 272.934 537.498 272.858 537.002 272.37 536.884 271.613 537.209 270.997ZM535.839 273.837C535.989 273.488 536.395 273.326 536.745 273.477 536.839 273.518 536.924 273.58 536.992 273.658 537.382 274.071 537.477 274.683 537.231 275.195 537.08 275.545 536.675 275.706 536.325 275.556 536.23 275.514 536.146 275.453 536.078 275.375 535.687 274.961 535.592 274.35 535.839 273.837ZM534.785 277.803C534.395 277.389 534.3 276.778 534.546 276.265 534.697 275.915 535.103 275.755 535.453 275.906 535.547 275.946 535.632 276.008 535.699 276.086 536.09 276.499 536.185 277.111 535.938 277.623 535.787 277.973 535.382 278.134 535.032 277.983 534.937 277.942 534.853 277.88 534.785 277.803ZM547.901 281.371C547.158 283.645 546.962 286.062 547.328 288.426 547.506 289.567 549.167 292.371 549.778 295.046 550.389 297.72 549.95 300.266 545.927 300.892 542.421 301.438 540.921 299.848 540.225 297.652 539.528 295.457 539.635 292.657 539.344 290.781 539.098 289.333 538.504 287.966 537.611 286.799 536.605 285.33 535.961 283.644 535.732 281.879 535.457 280.112 536.526 277.858 538.058 275.984 539.589 274.111 541.584 272.617 543.161 272.372 544.402 272.071 545.704 272.139 546.907 272.568 547.943 273.15 548.601 274.229 548.645 275.416 548.867 277.432 548.612 279.471 547.901 281.371ZM547.577 267.379C547.687 268.045 547.547 268.728 547.183 269.297 546.552 270.319 545.213 270.635 544.191 270.004 544.095 269.945 544.005 269.878 543.919 269.805 542.856 268.905 542.615 267.359 543.355 266.178 543.987 265.157 545.327 264.841 546.348 265.473 546.443 265.532 546.534 265.598 546.619 265.671 547.138 266.103 547.479 266.711 547.577 267.379Z"/><path d="M591.002 236.938 578.292 236.938C583.813 246.504 580.534 258.736 570.968 264.257 568.506 265.678 565.77 266.557 562.942 266.838 562.98 267.025 563 267.216 563.002 267.408L563.002 304.938 591.002 304.938C593.211 304.938 595.002 303.147 595.002 300.938 595.002 300.938 595.002 300.938 595.002 300.938L595.002 240.938C595.002 238.728 593.211 236.938 591.002 236.938ZM586.046 273.429C586.276 273.473 586.472 273.625 586.573 273.837 586.819 274.35 586.724 274.961 586.333 275.375 586.084 275.662 585.649 275.692 585.361 275.443 585.283 275.375 585.221 275.29 585.18 275.195 584.934 274.683 585.029 274.071 585.42 273.658 585.58 273.486 585.812 273.401 586.046 273.429ZM583.714 270.766C584.068 270.4 584.653 270.391 585.019 270.746 585.094 270.819 585.156 270.904 585.202 270.997 585.527 271.613 585.41 272.37 584.913 272.858 584.558 273.224 583.974 273.233 583.609 272.879 583.533 272.806 583.471 272.72 583.424 272.626 583.099 272.01 583.217 271.254 583.714 270.766ZM580.361 269.244C580.419 268.834 580.619 268.458 580.924 268.179 581.397 267.722 582.151 267.735 582.608 268.208 582.684 268.286 582.749 268.375 582.8 268.471 583.215 269.212 583.071 270.142 582.45 270.722 581.977 271.179 581.224 271.166 580.767 270.693 580.691 270.615 580.626 270.526 580.574 270.43 580.367 270.072 580.292 269.652 580.361 269.244ZM574.834 267.379C574.932 266.711 575.273 266.103 575.792 265.671 576.704 264.889 578.077 264.995 578.859 265.907 578.931 265.992 578.997 266.083 579.057 266.178 579.796 267.359 579.556 268.905 578.492 269.805 577.581 270.587 576.208 270.481 575.427 269.569 575.354 269.484 575.287 269.393 575.228 269.297 574.865 268.728 574.724 268.045 574.834 267.379ZM586.68 281.879C586.451 283.644 585.807 285.33 584.801 286.799 583.908 287.966 583.313 289.333 583.068 290.781 582.776 292.657 582.883 295.457 582.187 297.652 581.49 299.848 579.99 301.438 576.484 300.892 572.461 300.266 572.022 297.72 572.633 295.046 573.244 292.371 574.905 289.567 575.083 288.426 575.449 286.062 575.253 283.645 574.51 281.371 573.799 279.471 573.545 277.432 573.766 275.416 573.81 274.229 574.469 273.15 575.504 272.568 576.707 272.139 578.01 272.071 579.251 272.372 580.827 272.617 582.822 274.111 584.354 275.984 585.886 277.858 586.954 280.112 586.68 281.879ZM587.984 277.071C587.946 277.347 587.821 277.603 587.626 277.803 587.376 278.09 586.94 278.12 586.653 277.87 586.575 277.802 586.514 277.718 586.473 277.623 586.227 277.111 586.322 276.499 586.712 276.086 586.962 275.798 587.398 275.768 587.685 276.018 587.763 276.086 587.824 276.171 587.865 276.265 587.99 276.514 588.032 276.797 587.984 277.071Z"/></g></svg>