<svg xmlns="http://www.w3.org/2000/svg" xmlns:xlink="http://www.w3.org/1999/xlink" viewBox="0 0 1366.04 1081"><defs><style>.cls-1{fill:none;}.cls-2{clip-path:url(#clip-path);}.cls-3{fill:#333;}</style><clipPath id="clip-path" transform="translate(0 0)"><path class="cls-1" d="M0,0V1081S67.5,872.5,129.5,795.5s131-133,223-126,149.14,66.53,289-14c33-19,93-81,109-102,8.11-10.64,27.6-27,38.94-35.72,35-26.78,73.06-19.28,102.06,7.72,2,1.89,10.65,10.23,12,12,13,17,53,71,53,71s77,91,201,63c146.22-33,208.5-124.39,208.5-124.39V135.85S1308.5,123.5,1040,120C754.88,116.28,721,11,717,4s-15.58-4-15.58-4Z"/></clipPath></defs><g id="Layer_2" data-name="Layer 2"><g class="cls-2"><path class="cls-3" d="M1366,135.85c-21.12-3.61-42.89-5.41-63.58-7.38-127.84-12.17-257.14,0-384.41-19.48l-5.7-.89c-38.42-6.18-76.69-15.45-111.7-32.45-30.42-14.77-58.46-35.71-78.71-63C717.31,6.36,718,0,710,0H647Q566,0,485,0H0V1081C85,806.87,183.34,718,255.5,686.2c135.45-59.61,215.44,66.1,370-21.11,117.49-66.3,144-180,225-161.87,72.4,16.2,75.38,112.47,176.22,156.4,75.12,32.73,143.65,9.87,178.79-1.86,78-26,132.32-78.83,160.49-110.65" transform="translate(0 0)"/></g><rect class="cls-3" x="647" width="719" height="242"/></g></svg>