<svg xmlns="http://www.w3.org/2000/svg" viewBox="0 0 1920 1080"><defs><style>.cls-1{fill:#c90;}</style></defs><g id="Layer_1" data-name="Layer 1"><path class="cls-1" d="M395.75,607.13V423.06h25l96.69,144.52V446.41a23.34,23.34,0,0,1,23.35-23.35h0V607.13h0a46.76,46.76,0,0,1-38.87-20.78L419.1,462.48V583.77a23.35,23.35,0,0,1-23.35,23.36Z"/><path class="cls-1" d="M561.49,607.13l70.69-184.07h0a39.09,39.09,0,0,1,36.18,24.28l65.39,159.79h0A40.43,40.43,0,0,1,696,581.23l-11.5-29.85h-77l-11.4,31.43a36.89,36.89,0,0,1-34.68,24.32Zm53.11-75.59H677l-19.21-51q-5.82-15.36-9.65-27.1a3.1,3.1,0,0,0-6,.25,237.65,237.65,0,0,1-7.37,23.84Z"/><path class="cls-1" d="M866.35,607.13,937,423.06h0a39.1,39.1,0,0,1,36.19,24.28l65.39,159.79h0a40.43,40.43,0,0,1-37.72-25.9l-11.5-29.85h-77L901,582.81a36.9,36.9,0,0,1-34.68,24.32Zm53.11-75.59h62.4l-19.21-51q-5.82-15.36-9.65-27.1a3.1,3.1,0,0,0-6,.25,237.65,237.65,0,0,1-7.37,23.84Z"/><path class="cls-1" d="M1409.26,607.13,1480,423.06h0a39.09,39.09,0,0,1,36.18,24.28l65.4,159.79h0a40.43,40.43,0,0,1-37.72-25.9l-11.5-29.85h-77l-11.4,31.43a36.88,36.88,0,0,1-34.68,24.32Zm53.11-75.59h62.41l-19.21-51q-5.82-15.36-9.66-27.1a3.09,3.09,0,0,0-6,.25,237.65,237.65,0,0,1-7.37,23.84Z"/><path class="cls-1" d="M786.74,607.13,715.42,423.06h0a37.43,37.43,0,0,1,35.25,24.82l39,108.9q3.23,9,5.87,17.37a4,4,0,0,0,7.66,0q2.79-8.68,6.06-17.37l41-110.42a35.77,35.77,0,0,1,33.53-23.3h0l-63,160.8a36.64,36.64,0,0,1-34.1,23.27Z"/><path class="cls-1" d="M1244.15,607.13V423.06h81.61q24.62,0,37.42,5a40.89,40.89,0,0,1,20.47,17.51,52.31,52.31,0,0,1,7.66,27.75q0,19.59-12.68,33t-39.18,17.08q9.66,4.65,14.69,9.17A126.56,126.56,0,0,1,1374.36,557l32,50.1h0a55.78,55.78,0,0,1-47.07-25.85l-7.92-12.45q-10.68-16.58-17.58-25.36t-12.37-12.31a36.55,36.55,0,0,0-11.11-4.89q-4.14-.88-13.56-.88h-28.25v57.38a24.36,24.36,0,0,1-24.36,24.36Zm24.36-102.83h52.36q16.7,0,26.11-3.46a27.78,27.78,0,0,0,14.32-11,29.9,29.9,0,0,0,4.9-16.51,27.44,27.44,0,0,0-9.49-21.47q-9.48-8.42-29.94-8.41h-58.26Z"/><path class="cls-1" d="M1058.45,607.13V423.06h81.61q24.62,0,37.42,5A40.89,40.89,0,0,1,1198,445.53a52.31,52.31,0,0,1,7.66,27.75q0,19.59-12.69,33t-39.17,17.08q9.66,4.65,14.69,9.17A126.56,126.56,0,0,1,1188.66,557l32,50.1h0a55.81,55.81,0,0,1-47.08-25.85l-7.91-12.45q-10.68-16.58-17.58-25.36t-12.37-12.31a36.55,36.55,0,0,0-11.11-4.89q-4.14-.88-13.56-.88h-28.25v57.38a24.36,24.36,0,0,1-24.36,24.36Zm24.36-102.83h52.36q16.69,0,26.11-3.46a27.78,27.78,0,0,0,14.32-11,29.89,29.89,0,0,0,4.89-16.51,27.44,27.44,0,0,0-9.48-21.47q-9.48-8.42-29.94-8.41h-58.26Z"/></g></svg>